<svg width="24" height="24" viewBox="0 0 24 24" fill="none" xmlns="http://www.w3.org/2000/svg">
<path fill-rule="evenodd" clip-rule="evenodd" d="M18.0105 19.1421C18.3229 19.4546 18.8294 19.4546 19.1419 19.1421C19.4543 18.8297 19.4543 18.3232 19.1419 18.0108L13.2732 12.1422L19.284 6.1314C19.5964 5.81898 19.5964 5.31245 19.284 5.00003C18.9716 4.68761 18.465 4.68761 18.1526 5.00003L12.1419 11.0108L6.13109 5C5.81867 4.68758 5.31214 4.68758 4.99972 5C4.6873 5.31242 4.6873 5.81895 4.99972 6.13137L11.0105 12.1422L5.14186 18.0108C4.82944 18.3232 4.82944 18.8297 5.14186 19.1422C5.45428 19.4546 5.96081 19.4546 6.27323 19.1422L12.1419 13.2735L18.0105 19.1421Z" fill="#000D0B"/>
</svg>
